<svg aria-hidden="true" style="position: absolute; width: 0; height: 0; overflow: hidden;" version="1.1" xmlns="http://www.w3.org/2000/svg" xmlns:xlink="http://www.w3.org/1999/xlink">
<defs>
<symbol id="burger" viewBox="0 0 36 32">
<path d="M0 2.56c0-1.414 1.146-2.56 2.56-2.56v0h30.72c1.414 0 2.56 1.146 2.56 2.56s-1.146 2.56-2.56 2.56v0h-30.72c-1.414 0-2.56-1.146-2.56-2.56v0zM0 15.36c0-1.414 1.146-2.56 2.56-2.56v0h30.72c1.414 0 2.56 1.146 2.56 2.56s-1.146 2.56-2.56 2.56h-30.72c-1.414 0-2.56-1.146-2.56-2.56v0zM0 28.16c0-1.414 1.146-2.56 2.56-2.56h30.72c1.414 0 2.56 1.146 2.56 2.56s-1.146 2.56-2.56 2.56h-30.72c-1.414 0-2.56-1.146-2.56-2.56v0z"></path>
</symbol>
</defs>
</svg>
